<svg width="304" height="227" viewBox="0 0 304 227" fill="none" xmlns="http://www.w3.org/2000/svg">
<path fill-rule="evenodd" clip-rule="evenodd" d="M30.6223 0.957764V226.958H0.622253V0.957764H30.6223Z" fill="black"/>
<path fill-rule="evenodd" clip-rule="evenodd" d="M30.1987 0.957764L91.0897 61.8487L69.8765 83.062L8.98547 22.171L30.1987 0.957764Z" fill="black"/>
<path fill-rule="evenodd" clip-rule="evenodd" d="M109.875 0.957764V226.958H139.875V0.957764H109.875Z" fill="black"/>
<path fill-rule="evenodd" clip-rule="evenodd" d="M109.929 0.957764L49.0375 61.8487L70.2507 83.062L131.142 22.171L109.929 0.957764Z" fill="black"/>
<path fill-rule="evenodd" clip-rule="evenodd" d="M172.66 115.758H172.659V115.758H172.66V115.758Z" fill="black"/>
<path fill-rule="evenodd" clip-rule="evenodd" d="M172.659 95.9578H293.659V216.958H172.659V95.9578ZM173.659 96.9578V215.958H292.659V96.9578H173.659Z" fill="black"/>
<path fill-rule="evenodd" clip-rule="evenodd" d="M162.659 85.9578H303.659V226.958H162.659V85.9578ZM183.659 106.958V205.958H282.659V106.958H183.659Z" fill="black"/>
<path fill-rule="evenodd" clip-rule="evenodd" d="M233.159 156.458V156.458H233.16V156.458H233.159Z" fill="black" stroke="black"/>
<path fill-rule="evenodd" clip-rule="evenodd" d="M213.159 136.458H253.16V176.458H213.159V136.458Z" fill="black" stroke="black"/>
<path d="M177.806 83.062V51.539" stroke="black" stroke-width="8"/>
<path d="M162.659 51.5391H194.182" stroke="black" stroke-width="8"/>
<path d="M198.398 51.5391H228.921" stroke="black" stroke-width="8"/>
<path d="M202.542 66.0505H218.34" stroke="black" stroke-width="8"/>
<path d="M201.637 79.202H228.921" stroke="black" stroke-width="8"/>
<path d="M202.558 83.062V51.539" stroke="black" stroke-width="8"/>
<path d="M272.124 67.3005H293.014" stroke="black" stroke-width="8"/>
<path d="M273.832 83.8005V47.3005" stroke="black" stroke-width="8"/>
<path d="M273.832 83.8005V47.3005" stroke="black" stroke-width="8"/>
<path d="M293.659 83.8005V47.3005" stroke="black" stroke-width="8"/>
<path d="M233.16 51.5391H264.682" stroke="black" stroke-width="8"/>
<path d="M233.16 79.202H264.682" stroke="black" stroke-width="8"/>
<path d="M237.341 83.062V51.539" stroke="black" stroke-width="8"/>
</svg>
